<svg width="1440" height="920" viewBox="0 0 1440 920" fill="none" xmlns="http://www.w3.org/2000/svg">
  <defs>
    <linearGradient id="bg" x1="148" y1="72" x2="1290" y2="860" gradientUnits="userSpaceOnUse">
      <stop stop-color="#10231F"/>
      <stop offset="1" stop-color="#1C5047"/>
    </linearGradient>
    <linearGradient id="panel" x1="220" y1="180" x2="1094" y2="780" gradientUnits="userSpaceOnUse">
      <stop stop-color="#FFFDF8" stop-opacity="0.98"/>
      <stop offset="1" stop-color="#F4EEE4" stop-opacity="0.94"/>
    </linearGradient>
    <linearGradient id="accent" x1="0" y1="0" x2="1" y2="1">
      <stop stop-color="#2E7060"/>
      <stop offset="1" stop-color="#D95D39"/>
    </linearGradient>
    <filter id="shadow" x="120" y="80" width="1200" height="760" filterUnits="userSpaceOnUse" color-interpolation-filters="sRGB">
      <feDropShadow dx="0" dy="26" stdDeviation="28" flood-color="#0B1513" flood-opacity="0.22"/>
    </filter>
    <filter id="soft" x="0" y="0" width="1440" height="920" filterUnits="userSpaceOnUse" color-interpolation-filters="sRGB">
      <feGaussianBlur stdDeviation="40"/>
    </filter>
  </defs>

  <rect width="1440" height="920" rx="36" fill="#F3EEE5"/>
  <g opacity="0.5" filter="url(#soft)">
    <circle cx="240" cy="190" r="120" fill="#E58A63"/>
    <circle cx="1215" cy="184" r="150" fill="#4A9887"/>
    <circle cx="1086" cy="740" r="170" fill="#CFD8B4"/>
  </g>

  <rect x="140" y="120" width="1160" height="680" rx="34" fill="url(#bg)"/>
  <g filter="url(#shadow)">
    <rect x="192" y="158" width="1056" height="604" rx="28" fill="url(#panel)"/>
  </g>

  <rect x="228" y="194" width="266" height="532" rx="24" fill="#13211E"/>
  <text x="264" y="242" fill="#F7F1E6" font-family="Avenir Next, Segoe UI, sans-serif" font-size="18" font-weight="700" letter-spacing="4">DEEP WORK 4DX</text>
  <text x="264" y="294" fill="#FFF9F0" font-family="Iowan Old Style, Palatino Linotype, serif" font-size="34" font-weight="700">Focused execution.</text>
  <text x="264" y="332" fill="#FFF9F0" font-family="Iowan Old Style, Palatino Linotype, serif" font-size="34" font-weight="700">Weekly accountability.</text>

  <rect x="252" y="382" width="218" height="54" rx="16" fill="#FFFFFF" fill-opacity="0.08"/>
  <text x="278" y="416" fill="#FFF8F2" font-family="Avenir Next, Segoe UI, sans-serif" font-size="18" font-weight="600">Dashboard</text>
  <rect x="252" y="448" width="218" height="54" rx="16" fill="#FFFFFF" fill-opacity="0.04"/>
  <text x="278" y="482" fill="#E2DBD0" font-family="Avenir Next, Segoe UI, sans-serif" font-size="18" font-weight="500">Goals</text>
  <rect x="252" y="514" width="218" height="54" rx="16" fill="#FFFFFF" fill-opacity="0.04"/>
  <text x="278" y="548" fill="#E2DBD0" font-family="Avenir Next, Segoe UI, sans-serif" font-size="18" font-weight="500">Focus</text>
  <rect x="252" y="580" width="218" height="54" rx="16" fill="#FFFFFF" fill-opacity="0.04"/>
  <text x="278" y="614" fill="#E2DBD0" font-family="Avenir Next, Segoe UI, sans-serif" font-size="18" font-weight="500">Weekly Review</text>

  <rect x="534" y="194" width="666" height="112" rx="24" fill="#FBF7F0"/>
  <text x="568" y="234" fill="#D95D39" font-family="Avenir Next, Segoe UI, sans-serif" font-size="15" font-weight="700" letter-spacing="3">WEEKLY FOCUS</text>
  <text x="568" y="276" fill="#13211E" font-family="Iowan Old Style, Palatino Linotype, serif" font-size="38" font-weight="700">11.5h logged against 18.0h committed</text>
  <rect x="568" y="292" width="386" height="14" rx="999" fill="#E7E0D2"/>
  <rect x="568" y="292" width="247" height="14" rx="999" fill="url(#accent)"/>

  <rect x="534" y="330" width="320" height="196" rx="24" fill="#FFFDF8"/>
  <text x="562" y="370" fill="#13211E" font-family="Iowan Old Style, Palatino Linotype, serif" font-size="28" font-weight="700">Goal scoreboard</text>
  <text x="562" y="405" fill="#5C6E68" font-family="Avenir Next, Segoe UI, sans-serif" font-size="16">Ship v1</text>
  <rect x="562" y="418" width="260" height="12" rx="999" fill="#ECE5D7"/>
  <rect x="562" y="418" width="172" height="12" rx="999" fill="#2E7060"/>
  <text x="562" y="460" fill="#5C6E68" font-family="Avenir Next, Segoe UI, sans-serif" font-size="16">Read deeply</text>
  <rect x="562" y="473" width="260" height="12" rx="999" fill="#ECE5D7"/>
  <rect x="562" y="473" width="124" height="12" rx="999" fill="#D95D39"/>
  <text x="562" y="515" fill="#5C6E68" font-family="Avenir Next, Segoe UI, sans-serif" font-size="16">Design review system</text>
  <rect x="562" y="528" width="260" height="12" rx="999" fill="#ECE5D7"/>
  <rect x="562" y="528" width="206" height="12" rx="999" fill="#91B7A4"/>

  <rect x="880" y="330" width="320" height="196" rx="24" fill="#13211E"/>
  <text x="908" y="370" fill="#E58A63" font-family="Avenir Next, Segoe UI, sans-serif" font-size="15" font-weight="700" letter-spacing="3">FOCUS SESSION</text>
  <text x="908" y="418" fill="#FFF9F0" font-family="Iowan Old Style, Palatino Linotype, serif" font-size="72" font-weight="700">24:12</text>
  <text x="908" y="454" fill="#E6DED1" font-family="Avenir Next, Segoe UI, sans-serif" font-size="20">Goal: Ship v1</text>
  <rect x="908" y="476" width="124" height="42" rx="21" fill="#D95D39"/>
  <text x="944" y="503" fill="#FFF9F2" font-family="Avenir Next, Segoe UI, sans-serif" font-size="18" font-weight="700">Pause</text>
  <rect x="1048" y="476" width="124" height="42" rx="21" fill="#FFFFFF" fill-opacity="0.12"/>
  <text x="1074" y="503" fill="#FFF9F2" font-family="Avenir Next, Segoe UI, sans-serif" font-size="18" font-weight="700">Complete</text>

  <rect x="534" y="552" width="320" height="174" rx="24" fill="#FFFDF8"/>
  <text x="562" y="592" fill="#13211E" font-family="Iowan Old Style, Palatino Linotype, serif" font-size="28" font-weight="700">Recent milestones</text>
  <circle cx="575" cy="629" r="6" fill="#2E7060"/>
  <text x="594" y="635" fill="#13211E" font-family="Avenir Next, Segoe UI, sans-serif" font-size="17" font-weight="600">Finished landing page copy</text>
  <text x="594" y="657" fill="#5C6E68" font-family="Avenir Next, Segoe UI, sans-serif" font-size="15">Ship v1</text>
  <circle cx="575" cy="686" r="6" fill="#D95D39"/>
  <text x="594" y="692" fill="#13211E" font-family="Avenir Next, Segoe UI, sans-serif" font-size="17" font-weight="600">Completed chapter notes</text>
  <text x="594" y="714" fill="#5C6E68" font-family="Avenir Next, Segoe UI, sans-serif" font-size="15">Read deeply</text>

  <rect x="880" y="552" width="320" height="174" rx="24" fill="#FBF7F0"/>
  <text x="908" y="592" fill="#13211E" font-family="Iowan Old Style, Palatino Linotype, serif" font-size="28" font-weight="700">Weekly review</text>
  <text x="908" y="630" fill="#5C6E68" font-family="Avenir Next, Segoe UI, sans-serif" font-size="16">Commitments</text>
  <text x="1126" y="630" fill="#5C6E68" font-family="Avenir Next, Segoe UI, sans-serif" font-size="16">Actual</text>
  <text x="908" y="664" fill="#13211E" font-family="Avenir Next, Segoe UI, sans-serif" font-size="17" font-weight="600">Ship v1</text>
  <text x="1082" y="664" fill="#13211E" font-family="Avenir Next, Segoe UI, sans-serif" font-size="17">8h</text>
  <text x="1140" y="664" fill="#13211E" font-family="Avenir Next, Segoe UI, sans-serif" font-size="17">6.5h</text>
  <text x="908" y="698" fill="#13211E" font-family="Avenir Next, Segoe UI, sans-serif" font-size="17" font-weight="600">Read deeply</text>
  <text x="1082" y="698" fill="#13211E" font-family="Avenir Next, Segoe UI, sans-serif" font-size="17">5h</text>
  <text x="1140" y="698" fill="#13211E" font-family="Avenir Next, Segoe UI, sans-serif" font-size="17">3h</text>

  <text x="196" y="848" fill="#13211E" font-family="Avenir Next, Segoe UI, sans-serif" font-size="22" font-weight="700">Goal-centered focus</text>
  <text x="432" y="848" fill="#5C6E68" font-family="Avenir Next, Segoe UI, sans-serif" font-size="22">•</text>
  <text x="456" y="848" fill="#13211E" font-family="Avenir Next, Segoe UI, sans-serif" font-size="22" font-weight="700">Weekly scoreboard</text>
  <text x="720" y="848" fill="#5C6E68" font-family="Avenir Next, Segoe UI, sans-serif" font-size="22">•</text>
  <text x="744" y="848" fill="#13211E" font-family="Avenir Next, Segoe UI, sans-serif" font-size="22" font-weight="700">SQLite or PostgreSQL</text>
</svg>
