<svg width="1440" height="920" viewBox="0 0 1440 920" fill="none" xmlns="http://www.w3.org/2000/svg">
  <defs>
    <linearGradient id="bg" x1="148" y1="72" x2="1290" y2="860" gradientUnits="userSpaceOnUse">
      <stop stop-color="#071326"/>
      <stop offset="1" stop-color="#0F2E66"/>
    </linearGradient>
    <linearGradient id="panel" x1="220" y1="180" x2="1094" y2="780" gradientUnits="userSpaceOnUse">
      <stop stop-color="#FFFFFF" stop-opacity="0.98"/>
      <stop offset="1" stop-color="#ECF4FF" stop-opacity="0.94"/>
    </linearGradient>
    <linearGradient id="accent" x1="0" y1="0" x2="1" y2="1">
      <stop stop-color="#2F7CFF"/>
      <stop offset="1" stop-color="#44D2FF"/>
    </linearGradient>
    <filter id="shadow" x="120" y="80" width="1200" height="760" filterUnits="userSpaceOnUse" color-interpolation-filters="sRGB">
      <feDropShadow dx="0" dy="26" stdDeviation="28" flood-color="#0A1531" flood-opacity="0.24"/>
    </filter>
    <filter id="soft" x="0" y="0" width="1440" height="920" filterUnits="userSpaceOnUse" color-interpolation-filters="sRGB">
      <feGaussianBlur stdDeviation="40"/>
    </filter>
  </defs>

  <rect width="1440" height="920" rx="36" fill="#EAF4FF"/>
  <g opacity="0.5" filter="url(#soft)">
    <circle cx="240" cy="190" r="120" fill="#76B2FF"/>
    <circle cx="1215" cy="184" r="150" fill="#56DEFF"/>
    <circle cx="1086" cy="740" r="170" fill="#9EBCFF"/>
  </g>

  <rect x="140" y="120" width="1160" height="680" rx="34" fill="url(#bg)"/>
  <g filter="url(#shadow)">
    <rect x="192" y="158" width="1056" height="604" rx="28" fill="url(#panel)"/>
  </g>

  <rect x="228" y="194" width="266" height="532" rx="24" fill="#0B1D46"/>
  <text x="264" y="242" fill="#DFF3FF" font-family="Avenir Next, Trebuchet MS, Segoe UI, sans-serif" font-size="18" font-weight="700" letter-spacing="4">DEEP WORK 4DX</text>
  <text x="264" y="294" fill="#F4F9FF" font-family="Avenir Next, Trebuchet MS, Segoe UI, sans-serif" font-size="34" font-weight="800">Focused execution.</text>
  <text x="264" y="332" fill="#F4F9FF" font-family="Avenir Next, Trebuchet MS, Segoe UI, sans-serif" font-size="34" font-weight="800">Weekly accountability.</text>

  <rect x="252" y="382" width="218" height="54" rx="16" fill="#FFFFFF" fill-opacity="0.08"/>
  <text x="278" y="416" fill="#FFF8F2" font-family="Avenir Next, Segoe UI, sans-serif" font-size="18" font-weight="600">Dashboard</text>
  <rect x="252" y="448" width="218" height="54" rx="16" fill="#FFFFFF" fill-opacity="0.04"/>
  <text x="278" y="482" fill="#DCE7FF" font-family="Avenir Next, Segoe UI, sans-serif" font-size="18" font-weight="500">Goals</text>
  <rect x="252" y="514" width="218" height="54" rx="16" fill="#FFFFFF" fill-opacity="0.04"/>
  <text x="278" y="548" fill="#DCE7FF" font-family="Avenir Next, Segoe UI, sans-serif" font-size="18" font-weight="500">Focus</text>
  <rect x="252" y="580" width="218" height="54" rx="16" fill="#FFFFFF" fill-opacity="0.04"/>
  <text x="278" y="614" fill="#DCE7FF" font-family="Avenir Next, Segoe UI, sans-serif" font-size="18" font-weight="500">Weekly Review</text>

  <rect x="534" y="194" width="666" height="112" rx="24" fill="#F8FBFF"/>
  <text x="568" y="234" fill="#2F7CFF" font-family="Avenir Next, Segoe UI, sans-serif" font-size="15" font-weight="700" letter-spacing="3">WEEKLY FOCUS</text>
  <text x="568" y="276" fill="#112347" font-family="Avenir Next, Trebuchet MS, Segoe UI, sans-serif" font-size="38" font-weight="800">690 min logged against 1080 min committed</text>
  <rect x="568" y="292" width="386" height="14" rx="999" fill="#D9E7FF"/>
  <rect x="568" y="292" width="247" height="14" rx="999" fill="url(#accent)"/>

  <rect x="534" y="330" width="320" height="196" rx="24" fill="#0A1732"/>
  <text x="562" y="370" fill="#F4F9FF" font-family="Avenir Next, Trebuchet MS, Segoe UI, sans-serif" font-size="28" font-weight="800">Current focus</text>
  <text x="562" y="405" fill="#8FD2FF" font-family="Avenir Next, Segoe UI, sans-serif" font-size="16">Ship v1 · running</text>
  <text x="562" y="470" fill="#F4F9FF" font-family="Avenir Next, Trebuchet MS, Segoe UI, sans-serif" font-size="76" font-weight="800">24:12</text>
  <rect x="562" y="486" width="260" height="12" rx="999" fill="#12305F"/>
  <rect x="562" y="486" width="172" height="12" rx="999" fill="url(#accent)"/>
  <text x="562" y="520" fill="#8FD2FF" font-family="Avenir Next, Segoe UI, sans-serif" font-size="16">Time left · 24 min 12 sec</text>

  <rect x="880" y="330" width="320" height="196" rx="24" fill="#F8FBFF"/>
  <text x="908" y="370" fill="#112347" font-family="Avenir Next, Trebuchet MS, Segoe UI, sans-serif" font-size="28" font-weight="800">Goal scoreboard</text>
  <text x="908" y="405" fill="#6178A4" font-family="Avenir Next, Segoe UI, sans-serif" font-size="16">Ship v1</text>
  <rect x="908" y="418" width="238" height="12" rx="999" fill="#D9E7FF"/>
  <rect x="908" y="418" width="164" height="12" rx="999" fill="#2F7CFF"/>
  <text x="908" y="446" fill="#6178A4" font-family="Avenir Next, Segoe UI, sans-serif" font-size="16">340 min / 480 min</text>
  <text x="908" y="482" fill="#6178A4" font-family="Avenir Next, Segoe UI, sans-serif" font-size="16">Read deeply</text>
  <rect x="908" y="495" width="238" height="12" rx="999" fill="#D9E7FF"/>
  <rect x="908" y="495" width="118" height="12" rx="999" fill="#44D2FF"/>
  <text x="908" y="523" fill="#6178A4" font-family="Avenir Next, Segoe UI, sans-serif" font-size="16">180 min / 300 min</text>

  <rect x="534" y="552" width="320" height="174" rx="24" fill="#F8FBFF"/>
  <text x="562" y="592" fill="#112347" font-family="Avenir Next, Trebuchet MS, Segoe UI, sans-serif" font-size="28" font-weight="800">Milestone momentum</text>
  <circle cx="575" cy="629" r="6" fill="#2F7CFF"/>
  <text x="594" y="635" fill="#112347" font-family="Avenir Next, Segoe UI, sans-serif" font-size="17" font-weight="600">Finished landing page copy</text>
  <text x="594" y="657" fill="#6178A4" font-family="Avenir Next, Segoe UI, sans-serif" font-size="15">Ship v1</text>
  <circle cx="575" cy="686" r="6" fill="#44D2FF"/>
  <text x="594" y="692" fill="#112347" font-family="Avenir Next, Segoe UI, sans-serif" font-size="17" font-weight="600">Completed chapter notes</text>
  <text x="594" y="714" fill="#6178A4" font-family="Avenir Next, Segoe UI, sans-serif" font-size="15">Read deeply</text>

  <rect x="880" y="552" width="320" height="174" rx="24" fill="#071326"/>
  <text x="908" y="592" fill="#F4F9FF" font-family="Avenir Next, Trebuchet MS, Segoe UI, sans-serif" font-size="28" font-weight="800">Focus session</text>
  <text x="908" y="630" fill="#3DDCFF" font-family="Avenir Next, Segoe UI, sans-serif" font-size="15" font-weight="700" letter-spacing="3">DEEP WORK TIMER</text>
  <text x="908" y="690" fill="#EEF7FF" font-family="Avenir Next, Trebuchet MS, Segoe UI, sans-serif" font-size="72" font-weight="800">24:12</text>
  <text x="908" y="724" fill="#91ABD6" font-family="Avenir Next, Segoe UI, sans-serif" font-size="20">Goal: Ship v1 · Stop · Discard</text>

  <text x="196" y="848" fill="#112347" font-family="Avenir Next, Segoe UI, sans-serif" font-size="22" font-weight="700">Goal-centered focus</text>
  <text x="432" y="848" fill="#6178A4" font-family="Avenir Next, Segoe UI, sans-serif" font-size="22">•</text>
  <text x="456" y="848" fill="#112347" font-family="Avenir Next, Segoe UI, sans-serif" font-size="22" font-weight="700">Minute-based accountability</text>
  <text x="790" y="848" fill="#6178A4" font-family="Avenir Next, Segoe UI, sans-serif" font-size="22">•</text>
  <text x="814" y="848" fill="#112347" font-family="Avenir Next, Segoe UI, sans-serif" font-size="22" font-weight="700">SQLite or PostgreSQL</text>
</svg>
